Coordinates
version=1
nRows=32
nColumns=22
inDegrees=yes

Units are S.I. units (second, meters, Newtons, ...)
If the header above contains a line with 'inDegrees', this indicates whether rotational values are in degrees (yes) or radians (no).

endheader
time	pelvis_tilt	pelvis_list	pelvis_rotation	pelvis_tx	pelvis_ty	pelvis_tz	hip_flexion_r	hip_adduction_r	hip_rotation_r	knee_angle_r	ankle_angle_r	subtalar_angle_r	hip_flexion_l	hip_adduction_l	hip_rotation_l	knee_angle_l	ankle_angle_l	subtalar_angle_l	lumbar_extension	lumbar_bending	lumbar_rotation
      0.01000000	     -2.03138337	     -1.98982538	     -6.23715651	     -1.02582185	      0.91798098	      0.64052087	     -6.75227248	      5.14104146	     -9.57979203	    -13.24456220	     21.02862992	      0.67334371	     33.02914547	     -2.41052412	     -4.62472848	    -32.29544759	      6.08503857	     -0.76671113	    -13.79933677	     -0.90615201	      3.05338146
      0.02000000	     -2.21090086	     -1.96501166	     -6.27882175	     -1.02157379	      0.91673858	      0.64063196	     -6.90489762	      5.10454681	     -9.55547506	    -13.16098789	     21.24899720	      0.61123631	     33.22864419	     -2.38471423	     -4.96437023	    -30.83540256	      6.01922936	     -0.78055632	    -13.58681293	     -0.94032376	      3.12000762
      0.03000000	     -2.42937158	     -1.98163783	     -6.30913167	     -1.01654541	      0.91520692	      0.64073528	     -7.09155832	      5.11540272	     -9.50789649	    -13.04986956	     21.45722727	      0.65671425	     33.46249596	     -2.38842978	     -5.31549182	    -29.18598471	      5.98827135	     -0.71677802	    -13.33150093	     -0.92425264	      3.15501639
      0.04000000	     -2.65752550	     -2.00551554	     -6.37038620	     -1.01087033	      0.91346398	      0.64089917	     -7.31901744	      5.12289743	     -9.46275720	    -12.93235067	     21.71185047	      0.75694440	     33.69405154	     -2.43045041	     -5.80035900	    -27.45174710	      5.95157407	     -0.59559679	    -13.05651329	     -0.91447178	      3.24606179
      0.05000000	     -2.89436244	     -2.05395864	     -6.45111902	     -1.00473675	      0.91154781	      0.64110924	     -7.57054785	      5.15262758	     -9.36885455	    -12.82165068	     21.95942021	      0.87955281	     33.92942423	     -2.52076916	     -6.40023774	    -25.73725203	      5.94888193	     -0.46868456	    -12.76842207	     -0.88874693	      3.33151007
      0.06000000	     -3.12373391	     -2.11929261	     -6.55591554	     -0.99825735	      0.90951664	      0.64136362	     -7.85287536	      5.19158003	     -9.24456025	    -12.71991111	     22.20587711	      1.01451414	     34.16735164	     -2.66297214	     -7.17665508	    -24.15665581	      5.97363732	     -0.35496639	    -12.48385857	     -0.85660821	      3.42703102
      0.07000000	     -3.34164538	     -2.19588233	     -6.67979795	     -0.99151330	      0.90741081	      0.64165829	     -8.15905495	      5.23459445	     -9.08506884	    -12.63701081	     22.43602828	      1.14352428	     34.41536692	     -2.85170367	     -8.15584858	    -22.79626189	      6.03153696	     -0.27957061	    -12.20663899	     -0.82734213	      3.51275762
      0.08000000	     -3.52197424	     -2.28079528	     -6.82448125	     -0.98454116	      0.90530016	      0.64199501	     -8.51902712	      5.27262689	     -8.92626178	    -12.56096509	     22.65495099	      1.28775655	     34.66149951	     -3.09056593	     -9.38295394	    -21.73857196	      6.10744942	     -0.22932720	    -11.96642723	     -0.80754552	      3.62316635
      0.09000000	     -3.66554898	     -2.37091461	     -6.98032882	     -0.97736546	      0.90321939	      0.64233264	     -8.92463772	      5.30179099	     -8.75755794	    -12.50160831	     22.84048192	      1.44323580	     34.89820345	     -3.36098324	    -10.80035196	    -21.00073306	      6.20808278	     -0.21387888	    -11.76448830	     -0.79587157	      3.74162239
      0.10000000	     -3.77306113	     -2.45705326	     -7.14451741	     -0.96996682	      0.90119631	      0.64268073	     -9.38317283	      5.31437303	     -8.57349362	    -12.44170563	     22.98463166	      1.61672832	     35.11976811	     -3.65220050	    -12.36331295	    -20.59627805	      6.32831156	     -0.24035990	    -11.59026823	     -0.80539877	      3.87230436
      0.11000000	     -3.84753053	     -2.53191535	     -7.30758696	     -0.96232243	      0.89925698	      0.64301761	     -9.90146169	      5.30485604	     -8.36735416	    -12.36130138	     23.07534653	      1.82247123	     35.31783082	     -3.94701589	    -13.99410814	    -20.51289725	      6.44914178	     -0.33406237	    -11.43709446	     -0.84160726	      4.00482499
      0.12000000	     -3.89819245	     -2.62837688	     -7.46520065	     -0.95449597	      0.89740482	      0.64331950	    -10.42153906	      5.30067902	     -8.18226440	    -12.35273952	     23.07949007	      2.00795542	     35.51076741	     -4.27598468	    -15.59911508	    -20.75988359	      6.55336263	     -0.46869304	    -11.30993822	     -0.85819373	      4.12442653
      0.13000000	     -3.91150362	     -2.68568095	     -7.60062880	     -0.94635179	      0.89571615	      0.64356973	    -11.03033046	      5.24872406	     -7.95822006	    -12.27414028	     23.00148856	      2.33279689	     35.63604850	     -4.54725633	    -17.06520941	    -21.23105182	      6.59786072	     -0.89623883	    -11.19294705	     -0.93237937	      4.23347267
      0.14000000	     -3.97010664	     -2.75750539	     -7.73203964	     -0.93800826	      0.89407540	      0.64379560	    -11.58029291	      5.21057410	     -7.69512205	    -12.23618883	     22.83094451	      2.55685271	     35.81013503	     -4.83715624	    -18.30890395	    -21.94639929	      6.55260277	     -1.26513460	    -11.00872050	     -0.98845047	      4.36801110
      0.15000000	     -4.01593336	     -2.80711181	     -7.80839930	     -0.92943234	      0.89261390	      0.64387339	    -12.12474761	      5.14013362	     -7.47230863	    -12.24932680	     22.54408470	      2.92496897	     35.96465502	     -5.05245732	    -19.23666635	    -22.83036197	      6.40144237	     -2.10248852	    -10.82414224	     -1.06530273	      4.43170473
      0.16000000	     -4.11388995	     -2.83330273	     -7.85957929	     -0.92063324	      0.89128264	      0.64387265	    -12.60855316	      5.04882880	     -7.23299531	    -12.27699304	     22.15147560	      3.26441316	     36.17064163	     -5.21395581	    -19.82810409	    -23.84183410	      6.08686402	     -2.99767976	    -10.55676446	     -1.16460323	      4.50105310
      0.17000000	     -4.25223817	     -2.82628446	     -7.87480798	     -0.91160872	      0.89013550	      0.64375929	    -13.02990655	      4.92506374	     -6.97953613	    -12.34093221	     21.62888760	      3.63599918	     36.42648463	     -5.30051052	    -20.08365424	    -24.94895044	      5.62732672	     -4.03193965	    -10.21927809	     -1.29572076	      4.55197783
      0.18000000	     -4.42238857	     -2.77804919	     -7.83673088	     -0.90233675	      0.88920039	      0.64350633	    -13.38830975	      4.76224228	     -6.76366481	    -12.45826797	     20.99691881	      4.03460123	     36.72974210	     -5.29072080	    -20.02468587	    -26.11971095	      5.08573927	     -5.13205966	     -9.81887307	     -1.46992562	      4.57273035
      0.19000000	     -4.60729700	     -2.68963326	     -7.76267149	     -0.89279513	      0.88852898	      0.64313419	    -13.70292365	      4.55504122	     -6.57024946	    -12.62471974	     20.23739307	      4.45420316	     37.05560675	     -5.19760075	    -19.72673706	    -27.32994202	      4.52525319	     -6.17383616	     -9.37203064	     -1.68825838	      4.58221332
      0.20000000	     -4.78508735	     -2.55503225	     -7.65977680	     -0.88295599	      0.88815615	      0.64264261	    -13.99001510	      4.29041208	     -6.40463563	    -12.85085927	     19.34838942	      4.91242742	     37.36826667	     -5.02224523	    -19.27727634	    -28.55766989	      4.02881494	     -7.09899833	     -8.90006534	     -1.95920763	      4.57976610
      0.21000000	     -4.93928561	     -2.37615626	     -7.54011979	     -0.87282136	      0.88811920	      0.64206264	    -14.26501758	      3.96754413	     -6.25024528	    -13.13678057	     18.31389533	      5.43301960	     37.61949803	     -4.76237785	    -18.70867231	    -29.74646883	      3.62788507	     -7.86654184	     -8.42227251	     -2.28909512	      4.60800912
      0.22000000	     -5.05994007	     -2.17253005	     -7.39109295	     -0.86239078	      0.88839746	      0.64137128	    -14.54296651	      3.61018510	     -6.11066748	    -13.47615871	     17.12991832	      6.02386425	     37.78981433	     -4.43209998	    -18.06971358	    -30.88645410	      3.36870148	     -8.42449936	     -7.95266138	     -2.65169302	      4.62162714
      0.23000000	     -5.12941615	     -1.94871706	     -7.22018967	     -0.85171680	      0.88901125	      0.64054937	    -14.82329129	      3.21682093	     -5.98209897	    -13.89617712	     15.80013722	      6.65902422	     37.83051721	     -4.02255459	    -17.37419707	    -31.91776440	      3.19968426	     -8.81739355	     -7.52078468	     -3.04085088	      4.65661673
      0.24000000	     -5.17049795	     -1.67495138	     -7.05967590	     -0.84080072	      0.88988947	      0.63963484	    -15.05160555	      2.74713972	     -5.85654947	    -14.44168926	     14.34662331	      7.46644458	     37.73703441	     -3.53573188	    -16.74556720	    -32.80684852	      3.21223923	     -9.15280903	     -7.08818979	     -3.48816010	      4.71671249
      0.25000000	     -5.17864163	     -1.39988097	     -6.88643787	     -0.82975671	      0.89100834	      0.63857496	    -15.21507322	      2.26009152	     -5.72245657	    -15.14042975	     12.75260797	      8.30656804	     37.50692978	     -2.99715491	    -16.14324893	    -33.54124064	      3.33899572	     -9.41561957	     -6.68721498	     -3.92834463	      4.77972548
      0.26000000	     -5.17624714	     -1.12628555	     -6.72021930	     -0.81863940	      0.89230296	      0.63742299	    -15.26036193	      1.75725338	     -5.56838780	    -16.03572065	     11.03820415	      9.20538954	     37.15714391	     -2.43452066	    -15.61897392	    -34.11690184	      3.60953401	     -9.66340546	     -6.29377829	     -4.35994378	      4.85279490
      0.27000000	     -5.16711271	     -0.89763851	     -6.54445216	     -0.80754448	      0.89373811	      0.63616189	    -15.16923486	      1.29056092	     -5.40649834	    -17.14585015	      9.17160187	     10.06942191	     36.70402973	     -1.88145561	    -15.12951713	    -34.54115075	      3.95746911	     -9.90344029	     -5.92401358	     -4.72775089	      4.92516198
      0.28000000	     -5.16603577	     -0.70233399	     -6.38371719	     -0.79652089	      0.89525214	      0.63483831	    -14.88910177	      0.84204607	     -5.21132814	    -18.52812396	      7.21113293	     10.90559955	     36.16505701	     -1.36099927	    -14.74787693	    -34.82081075	      4.42284533	    -10.16638684	     -5.56067451	     -5.04372801	      5.00038065
      0.29000000	     -5.17321378	     -0.55716071	     -6.23225607	     -0.78562681	      0.89681467	      0.63345564	    -14.40555348	      0.43152905	     -4.99352793	    -20.20009734	      5.17739304	     11.63384224	     35.55501508	     -0.89218829	    -14.45625379	    -34.97358249	      4.97485117	    -10.45217215	     -5.21299983	     -5.28753408	      5.06355219
      0.30000000	     -5.18598595	     -0.45996470	     -6.09321993	     -0.77490860	      0.89839032	      0.63203898	    -13.70826690	      0.05590462	     -4.75598786	    -22.17959264	      3.10452063	     12.19603236	     34.88786987	     -0.48265297	    -14.25149134	    -35.02054922	      5.59432598	    -10.75052847	     -4.89120298	     -5.46444507	      5.11515343
      0.31000000	     -5.19414396	     -0.40293095	     -5.96393556	     -0.76439696	      0.89995463	      0.63059603	    -12.80586615	     -0.29275365	     -4.50600522	    -24.46408104	      1.02689976	     12.55465446	     34.17141541	     -0.12790404	    -14.12274261	    -34.98623757	      6.26686158	    -11.04025835	     -4.61070468	     -5.58557929	      5.14274994
      0.32000000	     -5.18365293	     -0.37109061	     -5.83984637	     -0.75411086	      0.90148835	      0.62913036	    -11.72048310	     -0.62912562	     -4.25105464	    -27.03298018	     -1.04916664	     12.67739989	     33.41048599	      0.18781985	    -14.04952731	    -34.89588860	      6.95933940	    -11.28038781	     -4.39079510	     -5.67161191	      5.13778594
